<svg xmlns="http://www.w3.org/2000/svg" viewBox="0 0 850 850" fill="#000000" aria-hidden="true" id="Key--Streamline-Heroicons" height="850" width="850">
  <desc>
    Key Streamline Icon: https://streamlinehq.com
  </desc>
  <path fill-rule="evenodd" d="M557.8125 53.125a239.06249999999997 239.06249999999997 0 0 0 -235.55624999999998 280.00416666666666c2.372916666666667 13.8125 -1.1333333333333333 25.393749999999997 -7.8270833333333325 32.0875l-230.20833333333331 230.17291666666665a106.25 106.25 0 0 0 -31.09583333333333 75.11874999999999v99.80416666666666c0 14.662499999999998 11.9 26.5625 26.5625 26.5625H212.5a26.5625 26.5625 0 0 0 26.5625 -26.5625v-53.125h53.125A26.5625 26.5625 0 0 0 318.75 690.625V637.5h53.125a26.5625 26.5625 0 0 0 18.770833333333332 -7.791666666666666l94.13749999999999 -94.13749999999999c6.729166666666666 -6.69375 18.310416666666665 -10.2 32.0875 -7.791666666666666A239.06249999999997 239.06249999999997 0 1 0 557.8125 53.125Zm0 106.25a26.5625 26.5625 0 0 0 0 53.125A79.6875 79.6875 0 0 1 637.5 292.1875a26.5625 26.5625 0 0 0 53.125 0 132.8125 132.8125 0 0 0 -132.8125 -132.8125Z" clip-rule="evenodd" stroke-width="35.4167"></path>
</svg>
